<svg xmlns="http://www.w3.org/2000/svg" width="396" height="539.92" viewBox="0 0 396 539.92">
  <g id="homepage" transform="translate(711 -9.847)">
    <rect id="Rectangle_1" data-name="Rectangle 1" width="396" height="434" transform="translate(-711 10)" fill="#31255a"/>
    <g id="Group_2" data-name="Group 2" transform="translate(-163 -43)">
      <g id="Group_1" data-name="Group 1" transform="translate(-674.313 -84.264)">
        <path id="curve1" d="M130,400s62-18,105-3,62,28,86,54,71,34,71,34,64,6,83-64,0-113-43-120-110-24-138-63-39-72-39-79V139H160s-14-7-27,30S130,400,130,400Z" fill="#44416d"/>
        <path id="curve2" d="M133,572s52-4,110,41,113,56,113,56,49,15,99,4,67-38,67-41V168s1-28-33-30-237,0-237,0,3,11,0,5,3,40,13,52,31,52,43,60,39,26,65,33,88,3,105,62-30,115-30,115-47,57-130-13-122-61-122-61-49-2-63,7S133,572,133,572Z" fill="#31255a"/>
      </g>
      <path id="Path_4" data-name="Path 4" d="M446,170s44-4,42,44-42,46-42,46-42-8-44-46S446,170,446,170Z" transform="translate(-687 -89)" fill="#44416d"/>
      <path id="Path_5" data-name="Path 5" d="M116,477.333S78.667,488,100,508s38.667,13.333,38.667,13.333,24-2.667,22.667-26.667S116,477.333,116,477.333Z" transform="translate(-360.321 -19)" fill="#44416d"/>
      <path id="Path_6" data-name="Path 6" d="M84,266.667s25.333,9.333,17.333,44-34.667,18.667-34.667,18.667-32-2.667-24-38.667S84,266.667,84,266.667Z" transform="translate(-344.894 14)" fill="#31255a"/>
      <ellipse id="Ellipse_1" data-name="Ellipse 1" cx="11.5" cy="12" rx="11.5" ry="12" transform="translate(-350 81)" fill="#44416d"/>
      <ellipse id="Ellipse_2" data-name="Ellipse 2" cx="12" cy="15.5" rx="12" ry="15.5" transform="translate(-189 209)" fill="#44416d"/>
      <ellipse id="Ellipse_3" data-name="Ellipse 3" cx="18.5" cy="18" rx="18.5" ry="18" transform="translate(-488 421)" fill="#44416d"/>
    </g>
  </g>
</svg>
