<svg xmlns="http://www.w3.org/2000/svg" width="388" height="472" viewBox="0 0 388 472">
  <g id="Group_7" data-name="Group 7" transform="translate(2585.333 -379.667)">
    <g id="Group_6" data-name="Group 6" transform="translate(-324 21)">
      <path id="Path_11" data-name="Path 11" d="M-2261.333,752s101.333,12,128,33.333,80,0,80,0,46.667-38.667,113.333-10.667,66.667,56,66.667,56v-472h-388Z" fill="#31255a"/>
      <path id="Path_10" data-name="Path 10" d="M-2261.333,500S-2232,501.333-2196,484s74.667-29.333,105.333-25.333,94.667,4,133.333,41.333S-1920,577.333-1920,577.333s-1.333,41.333-30.667,58.667S-2056,636-2056,636s-66.667-32-129.333-13.333-76,44-76,44Z" fill="#44416d"/>
    </g>
    <path id="Path_12" data-name="Path 12" d="M-1954.667,372s-28,8-28,38.667,28,34.667,28,34.667,46.667-5.333,52-34.667S-1933.333,372-1933.333,372Z" transform="translate(-331 37)" fill="#44416d"/>
    <path id="Path_13" data-name="Path 13" d="M-2057.333,689.333s-20,30.667,0,53.333,54.667,0,54.667,0,32-22.667,13.333-44-60-9.333-60-9.333Z" transform="translate(-309)" fill="#44416d"/>
    <ellipse id="Ellipse_9" data-name="Ellipse 9" cx="18" cy="15" rx="18" ry="15" transform="translate(-2391 401)" fill="#44416d"/>
    <ellipse id="Ellipse_10" data-name="Ellipse 10" cx="11.5" cy="12" rx="11.5" ry="12" transform="translate(-2240 493)" fill="#44416d"/>
  </g>
</svg>
